<svg width="40" height="40" viewBox="0 0 40 40" fill="none" xmlns="http://www.w3.org/2000/svg">
<rect width="40" height="40" transform="matrix(0 1 1 0 0 0)" fill="#E9E6DC" fill-opacity="0.5"/>
<path d="M10.8747 26.448C9.32532 26.448 8.00932 26.1213 6.92666 25.468C5.86266 24.8147 5.04132 23.928 4.46266 22.808C3.90266 21.6693 3.61332 20.372 3.59466 18.916L7.87866 18.72C7.89732 20.1387 8.16799 21.184 8.69066 21.856C9.21332 22.528 9.94132 22.864 10.8747 22.864C11.8267 22.864 12.564 22.5373 13.0867 21.884C13.6093 21.2307 13.8707 20.2227 13.8707 18.86V6.12H18.1267V18.86C18.1267 20.4093 17.8187 21.7533 17.2027 22.892C16.6053 24.0307 15.7653 24.908 14.6827 25.524C13.6 26.14 12.3307 26.448 10.8747 26.448Z" fill="#3D3929"/>
<path d="M2.22266 29.5H19.7787V33.7H2.22266V29.5Z" fill="#3D3929"/>
<path d="M28.8747 26.448C27.3253 26.448 26.0093 26.1213 24.9267 25.468C23.8627 24.8147 23.0413 23.928 22.4627 22.808C21.9027 21.6693 21.6133 20.372 21.5947 18.916L25.8787 18.72C25.8973 20.1387 26.168 21.184 26.6907 21.856C27.2133 22.528 27.9413 22.864 28.8747 22.864C29.8267 22.864 30.564 22.5373 31.0867 21.884C31.6093 21.2307 31.8707 20.2227 31.8707 18.86V6.12H36.1267V18.86C36.1267 20.4093 35.8187 21.7533 35.2027 22.892C34.6053 24.0307 33.7653 24.908 32.6827 25.524C31.6 26.14 30.3307 26.448 28.8747 26.448Z" fill="black"/>
<path d="M20.2227 29.5H37.7787V33.7H20.2227V29.5Z" fill="black"/>
</svg>
